<?xml version="1.0" encoding="UTF-8" standalone="no"?>
<svg
   xmlns:dc="http://purl.org/dc/elements/1.1/"
   xmlns:cc="http://creativecommons.org/ns#"
   xmlns:rdf="http://www.w3.org/1999/02/22-rdf-syntax-ns#"
   xmlns:svg="http://www.w3.org/2000/svg"
   xmlns="http://www.w3.org/2000/svg"
   xmlns:xlink="http://www.w3.org/1999/xlink"
   xmlns:sodipodi="http://sodipodi.sourceforge.net/DTD/sodipodi-0.dtd"
   xmlns:inkscape="http://www.inkscape.org/namespaces/inkscape"
   width="409.63565pt"
   height="379.58118pt"
   version="1.1"
   viewBox="0 0 409.63565 379.58118"
   id="svg142"
   sodipodi:docname="AutomatedConnections.svg"
   inkscape:version="1.0.1 (3bc2e813f5, 2020-09-07)">
  <metadata
     id="metadata146">
    <rdf:RDF>
      <cc:Work
         rdf:about="">
        <dc:format>image/svg+xml</dc:format>
        <dc:type
           rdf:resource="http://purl.org/dc/dcmitype/StillImage" />
        <dc:title />
      </cc:Work>
    </rdf:RDF>
  </metadata>
  <sodipodi:namedview
     pagecolor="#ffffff"
     bordercolor="#666666"
     borderopacity="1"
     objecttolerance="10"
     gridtolerance="10"
     guidetolerance="10"
     inkscape:pageopacity="0"
     inkscape:pageshadow="2"
     inkscape:window-width="2560"
     inkscape:window-height="1369"
     id="namedview144"
     showgrid="false"
     inkscape:zoom="0.90509668"
     inkscape:cx="-8.9682633"
     inkscape:cy="162.08725"
     inkscape:window-x="-8"
     inkscape:window-y="-8"
     inkscape:window-maximized="1"
     inkscape:current-layer="svg142"
     inkscape:document-rotation="0"
     units="px"
     fit-margin-top="10"
     lock-margins="true"
     fit-margin-left="10"
     fit-margin-right="10"
     fit-margin-bottom="10" />
  <defs
     id="defs50">
    <marker
       style="overflow:visible"
       id="Arrow1Mend"
       refX="0"
       refY="0"
       orient="auto"
       inkscape:stockid="Arrow1Mend"
       inkscape:isstock="true">
      <path
         transform="matrix(-0.4,0,0,-0.4,-4,0)"
         style="fill:#00696b;fill-opacity:1;fill-rule:evenodd;stroke:#00696b;stroke-width:1pt;stroke-opacity:1"
         d="M 0,0 5,-5 -12.5,0 5,5 Z"
         id="path914" />
    </marker>
    <marker
       style="overflow:visible"
       id="marker1816"
       refX="0"
       refY="0"
       orient="auto"
       inkscape:stockid="Arrow1Send"
       inkscape:isstock="true">
      <path
         transform="matrix(-0.2,0,0,-0.2,-1.2,0)"
         style="fill:#00696b;fill-opacity:1;fill-rule:evenodd;stroke:#00696b;stroke-width:1pt;stroke-opacity:1"
         d="M 0,0 5,-5 -12.5,0 5,5 Z"
         id="path1814" />
    </marker>
    <marker
       style="overflow:visible"
       id="marker1764"
       refX="0"
       refY="0"
       orient="auto"
       inkscape:stockid="Arrow2Mend"
       inkscape:isstock="true">
      <path
         transform="scale(-0.6)"
         d="M 8.7185878,4.0337352 -2.2072895,0.01601326 8.7185884,-4.0017078 c -1.7454984,2.3720609 -1.7354408,5.6174519 -6e-7,8.035443 z"
         style="fill:#00696b;fill-opacity:1;fill-rule:evenodd;stroke:#00696b;stroke-width:0.625;stroke-linejoin:round;stroke-opacity:1"
         id="path1762" />
    </marker>
    <marker
       style="overflow:visible"
       id="marker1718"
       refX="0"
       refY="0"
       orient="auto"
       inkscape:stockid="Arrow2Send"
       inkscape:isstock="true">
      <path
         transform="matrix(-0.3,0,0,-0.3,0.69,0)"
         d="M 8.7185878,4.0337352 -2.2072895,0.01601326 8.7185884,-4.0017078 c -1.7454984,2.3720609 -1.7354408,5.6174519 -6e-7,8.035443 z"
         style="fill:#00696b;fill-opacity:1;fill-rule:evenodd;stroke:#00696b;stroke-width:0.625;stroke-linejoin:round;stroke-opacity:1"
         id="path1716" />
    </marker>
    <marker
       style="overflow:visible"
       id="Arrow1Send"
       refX="0"
       refY="0"
       orient="auto"
       inkscape:stockid="Arrow1Send"
       inkscape:isstock="true">
      <path
         transform="matrix(-0.2,0,0,-0.2,-1.2,0)"
         style="fill:#00696b;fill-opacity:1;fill-rule:evenodd;stroke:#00696b;stroke-width:1pt;stroke-opacity:1"
         d="M 0,0 5,-5 -12.5,0 5,5 Z"
         id="path920" />
    </marker>
    <marker
       style="overflow:visible"
       id="marker1646"
       refX="0"
       refY="0"
       orient="auto"
       inkscape:stockid="Arrow2Mend"
       inkscape:isstock="true">
      <path
         transform="scale(-0.6)"
         d="M 8.7185878,4.0337352 -2.2072895,0.01601326 8.7185884,-4.0017078 c -1.7454984,2.3720609 -1.7354408,5.6174519 -6e-7,8.035443 z"
         style="fill:#00696b;fill-opacity:1;fill-rule:evenodd;stroke:#00696b;stroke-width:0.625;stroke-linejoin:round;stroke-opacity:1"
         id="path1644" />
    </marker>
    <marker
       style="overflow:visible"
       id="Arrow2Send"
       refX="0"
       refY="0"
       orient="auto"
       inkscape:stockid="Arrow2Send"
       inkscape:isstock="true">
      <path
         transform="matrix(-0.3,0,0,-0.3,0.69,0)"
         d="M 8.7185878,4.0337352 -2.2072895,0.01601326 8.7185884,-4.0017078 c -1.7454984,2.3720609 -1.7354408,5.6174519 -6e-7,8.035443 z"
         style="fill:#00696b;fill-opacity:1;fill-rule:evenodd;stroke:#00696b;stroke-width:0.625;stroke-linejoin:round;stroke-opacity:1"
         id="path938" />
    </marker>
    <marker
       style="overflow:visible"
       id="Arrow2Lend"
       refX="0"
       refY="0"
       orient="auto"
       inkscape:stockid="Arrow2Lend"
       inkscape:isstock="true">
      <path
         transform="matrix(-1.1,0,0,-1.1,-1.1,0)"
         d="M 8.7185878,4.0337352 -2.2072895,0.01601326 8.7185884,-4.0017078 c -1.7454984,2.3720609 -1.7354408,5.6174519 -6e-7,8.035443 z"
         style="fill:#00696b;fill-opacity:1;fill-rule:evenodd;stroke:#00696b;stroke-width:0.625;stroke-linejoin:round;stroke-opacity:1"
         id="path926" />
    </marker>
    <marker
       style="overflow:visible"
       id="Arrow2Mend"
       refX="0"
       refY="0"
       orient="auto"
       inkscape:stockid="Arrow2Mend"
       inkscape:isstock="true">
      <path
         transform="scale(-0.6)"
         d="M 8.7185878,4.0337352 -2.2072895,0.01601326 8.7185884,-4.0017078 c -1.7454984,2.3720609 -1.7354408,5.6174519 -6e-7,8.035443 z"
         style="fill:#00696b;fill-opacity:1;fill-rule:evenodd;stroke:#00696b;stroke-width:0.625;stroke-linejoin:round;stroke-opacity:1"
         id="path932" />
    </marker>
    <symbol
       id="p"
       overflow="visible">
      <path
         d="m 29.312,-1.75 c -1.5117,0.78125 -3.0898,1.3711 -4.7344,1.7656 -1.6367,0.40625 -3.3398,0.60938 -5.1094,0.60938 -5.3125,0 -9.5273,-1.4844 -12.641,-4.4531 -3.1055,-2.9688 -4.6562,-7 -4.6562,-12.094 0,-5.094 1.5508,-9.125 4.6562,-12.094 3.1133,-2.9688 7.3281,-4.4531 12.641,-4.4531 1.7695,0 3.4727,0.19922 5.1094,0.59375 1.6445,0.39844 3.2227,0.99219 4.7344,1.7812 v 6.5938 c -1.5312,-1.0391 -3.0391,-1.8008 -4.5156,-2.2812 -1.4805,-0.48828 -3.0391,-0.73438 -4.6719,-0.73438 -2.9375,0 -5.2461,0.94531 -6.9219,2.8281 -1.6797,1.875 -2.5156,4.4648 -2.5156,7.7656 0,3.293 0.83594,5.8828 2.5156,7.7656 1.6758,1.875 3.9844,2.8125 6.9219,2.8125 1.6328,0 3.1914,-0.23828 4.6719,-0.71875 1.4766,-0.48828 2.9844,-1.2539 4.5156,-2.2969 z"
         id="path2" />
    </symbol>
    <symbol
       id="c"
       overflow="visible">
      <path
         d="m 21.453,-17.406 c -0.67969,-0.3125 -1.3516,-0.53906 -2.0156,-0.6875 -0.65625,-0.15625 -1.3203,-0.23438 -1.9844,-0.23438 -1.9688,0 -3.4844,0.63281 -4.5469,1.8906 -1.0547,1.2617 -1.5781,3.0703 -1.5781,5.4219 V 6.2e-4 H 3.6718 v -23.922 h 7.6562 v 3.9219 c 0.97656,-1.5625 2.1016,-2.7031 3.375,-3.4219 1.2812,-0.71875 2.8125,-1.0781 4.5938,-1.0781 0.25,0 0.52344,0.01172 0.82812,0.03125 0.30078,0.02344 0.73438,0.07031 1.2969,0.14062 z"
         id="path5" />
    </symbol>
    <symbol
       id="a"
       overflow="visible">
      <path
         d="m 27.562,-12.031 v 2.1875 H 9.671 c 0.1875,1.793 0.83203,3.1367 1.9375,4.0312 1.1133,0.89844 2.6719,1.3438 4.6719,1.3438 1.6016,0 3.25,-0.23438 4.9375,-0.70312 1.6875,-0.47656 3.4219,-1.2031 5.2031,-2.1719 v 5.8906 c -1.8047,0.6875 -3.6094,1.2031 -5.4219,1.5469 -1.8125,0.35156 -3.6211,0.53125 -5.4219,0.53125 -4.3359,0 -7.7031,-1.0977 -10.109,-3.2969 -2.3984,-2.207 -3.5938,-5.2969 -3.5938,-9.2656 0,-3.9062 1.1758,-6.9727 3.5312,-9.2031 2.3633,-2.2383 5.6094,-3.3594 9.7344,-3.3594 3.7578,0 6.7695,1.1367 9.0312,3.4062 2.2578,2.2617 3.3906,5.2812 3.3906,9.0625 z m -7.8594,-2.5312 c 0,-1.457 -0.42969,-2.6289 -1.2812,-3.5156 -0.84375,-0.89453 -1.9492,-1.3438 -3.3125,-1.3438 -1.4922,0 -2.6992,0.41797 -3.625,1.25 -0.91797,0.83594 -1.4922,2.0391 -1.7188,3.6094 z"
         id="path8" />
    </symbol>
    <symbol
       id="i"
       overflow="visible">
      <path
         d="m 14.391,-10.766 c -1.5938,0 -2.793,0.27344 -3.5938,0.8125 -0.80469,0.54297 -1.2031,1.3398 -1.2031,2.3906 0,0.96875 0.32031,1.7305 0.96875,2.2812 0.64453,0.54297 1.5469,0.8125 2.7031,0.8125 1.4375,0 2.6445,-0.51562 3.625,-1.5469 0.98828,-1.0312 1.4844,-2.3203 1.4844,-3.875 v -0.875 z m 11.688,-2.8906 V -6e-4 h -7.7031 v -3.5469 c -1.0312,1.4492 -2.1875,2.5078 -3.4688,3.1719 -1.2813,0.6641 -2.8398,1 -4.6719,1 -2.4805,0 -4.4961,-0.72266 -6.0469,-2.1719 -1.543,-1.4453 -2.3125,-3.3203 -2.3125,-5.625 0,-2.8125 0.96094,-4.8672 2.8906,-6.1719 1.9375,-1.3125 4.9688,-1.9688 9.0938,-1.9688 h 4.5156 v -0.60938 c 0,-1.207 -0.48047,-2.0938 -1.4375,-2.6562 -0.94922,-0.5625 -2.4375,-0.84375 -4.4688,-0.84375 -1.6367,0 -3.1562,0.16797 -4.5625,0.5 -1.4062,0.32422 -2.7188,0.8125 -3.9375,1.4688 v -5.8281 c 1.6445,-0.40625 3.2891,-0.70703 4.9375,-0.90625 1.6562,-0.20703 3.3047,-0.3125 4.9531,-0.3125 4.3203,0 7.4375,0.85547 9.3438,2.5625 1.9141,1.6992 2.875,4.4609 2.875,8.2812 z"
         id="path11" />
    </symbol>
    <symbol
       id="b"
       overflow="visible">
      <path
         d="m 12.031,-30.719 v 6.7969 h 7.875 v 5.4688 h -7.875 v 10.141 c 0,1.1172 0.21875,1.8711 0.65625,2.2656 0.4375,0.38672 1.3125,0.57812 2.625,0.57812 h 3.9375 v 5.4688 h -6.5625 c -3.0234,0 -5.1641,-0.62891 -6.4219,-1.8906 -1.2617,-1.2578 -1.8906,-3.3984 -1.8906,-6.4219 v -10.141 h -3.7969 v -5.4688 h 3.7969 v -6.7969 z"
         id="path14" />
    </symbol>
    <symbol
       id="h"
       overflow="visible">
      <path
         d="m 19.953,-20.422 v -12.812 h 7.6875 V 0 H 19.953 v -3.4531 c -1.0547,1.4062 -2.2148,2.4375 -3.4844,3.0938 -1.2734,0.65625 -2.7422,0.98438 -4.4062,0.98438 -2.9492,0 -5.3711,-1.1719 -7.2656,-3.5156 -1.8867,-2.3438 -2.8281,-5.3594 -2.8281,-9.0469 0,-3.6875 0.94141,-6.7031 2.8281,-9.0469 1.8945,-2.3438 4.3164,-3.5156 7.2656,-3.5156 1.6562,0 3.1172,0.33594 4.3906,1 1.2812,0.65625 2.4453,1.6836 3.5,3.0781 z m -5.0469,15.484 c 1.6445,0 2.8945,-0.59766 3.75,-1.7969 0.86328,-1.1953 1.2969,-2.9297 1.2969,-5.2031 0,-2.2812 -0.43359,-4.0195 -1.2969,-5.2188 -0.85547,-1.1953 -2.1055,-1.7969 -3.75,-1.7969 -1.625,0 -2.8711,0.60156 -3.7344,1.7969 -0.85547,1.1992 -1.2812,2.9375 -1.2812,5.2188 0,2.2734 0.42578,4.0078 1.2812,5.2031 0.86328,1.1992 2.1094,1.7969 3.7344,1.7969 z"
         id="path17" />
    </symbol>
    <symbol
       id="g"
       overflow="visible">
      <path
         d="m 16.406,-4.9375 c 1.6328,0 2.8828,-0.59766 3.75,-1.7969 0.86328,-1.1953 1.2969,-2.9297 1.2969,-5.2031 0,-2.2812 -0.43359,-4.0195 -1.2969,-5.2188 -0.86719,-1.1953 -2.1172,-1.7969 -3.75,-1.7969 -1.6367,0 -2.8906,0.60547 -3.7656,1.8125 -0.875,1.1992 -1.3125,2.9336 -1.3125,5.2031 0,2.2617 0.4375,3.9961 1.3125,5.2031 0.875,1.1992 2.1289,1.7969 3.7656,1.7969 z m -5.0781,-15.484 c 1.0508,-1.3945 2.2188,-2.4219 3.5,-3.0781 1.2812,-0.66406 2.7539,-1 4.4219,-1 2.9453,0 5.3672,1.1719 7.2656,3.5156 1.8945,2.3438 2.8438,5.3594 2.8438,9.0469 0,3.6875 -0.94922,6.7031 -2.8438,9.0469 -1.8984,2.3438 -4.3203,3.5156 -7.2656,3.5156 -1.668,0 -3.1406,-0.33594 -4.4219,-1 -1.2813,-0.66406 -2.4492,-1.6914 -3.5,-3.0781 V 4e-4 H 3.6717 v -33.234 h 7.6562 z"
         id="path20" />
    </symbol>
    <symbol
       id="f"
       overflow="visible">
      <path
         d="m 0.53125,-23.922 h 7.6562 l 6.4219,16.234 5.4688,-16.234 h 7.6562 l -10.062,26.188 c -1.0117,2.6641 -2.1953,4.5234 -3.5469,5.5781 -1.3438,1.0625 -3.1211,1.5938 -5.3281,1.5938 H 4.37545 V 4.4223 h 2.3906 c 1.3008,0 2.2422,-0.21094 2.8281,-0.625 0.59375,-0.40625 1.0547,-1.1484 1.3906,-2.2188 l 0.20312,-0.65625 z"
         id="path23" />
    </symbol>
    <symbol
       id="e"
       overflow="visible">
      <path
         d="m 4.0156,-31.891 h 8.2188 v 11.641 l 11.859,-11.641 h 9.5469 L 18.2813,-16.797 35.2193,0 H 24.9383 L 12.2353,-12.562 V 0 H 4.0165 Z"
         id="path26" />
    </symbol>
    <symbol
       id="d"
       overflow="visible">
      <path
         d="m 15.062,-19.031 c -1.6992,0 -2.9961,0.60938 -3.8906,1.8281 -0.88672,1.2188 -1.3281,2.9766 -1.3281,5.2656 0,2.293 0.44141,4.0469 1.3281,5.2656 0.89453,1.2188 2.1914,1.8281 3.8906,1.8281 1.6641,0 2.9375,-0.60938 3.8125,-1.8281 0.88281,-1.2188 1.3281,-2.9727 1.3281,-5.2656 0,-2.2891 -0.44531,-4.0469 -1.3281,-5.2656 -0.875,-1.2188 -2.1484,-1.8281 -3.8125,-1.8281 z m 0,-5.4688 c 4.1133,0 7.3281,1.1094 9.6406,3.3281 2.3125,2.2187 3.4688,5.2969 3.4688,9.2344 0,3.9297 -1.1562,7.0078 -3.4688,9.2344 -2.3125,2.2188 -5.5273,3.3281 -9.6406,3.3281 -4.1367,0 -7.3711,-1.1094 -9.7031,-3.3281 -2.3242,-2.2266 -3.4844,-5.3047 -3.4844,-9.2344 0,-3.9375 1.1602,-7.0156 3.4844,-9.2344 2.332,-2.2188 5.5664,-3.3281 9.7031,-3.3281 z"
         id="path29" />
    </symbol>
    <symbol
       id="o"
       overflow="visible">
      <path
         d="m 25.844,-19.953 c 0.96875,-1.4766 2.1172,-2.6016 3.4531,-3.375 1.332,-0.78125 2.7969,-1.1719 4.3906,-1.1719 2.75,0 4.8438,0.85156 6.2812,2.5469 1.4375,1.6875 2.1562,4.1523 2.1562,7.3906 V -4e-4 h -7.6875 v -12.469 c 0.0078,-0.1875 0.01953,-0.37891 0.03125,-0.57812 0.0078,-0.19531 0.01563,-0.48438 0.01563,-0.85938 0,-1.6953 -0.25,-2.9258 -0.75,-3.6875 -0.5,-0.75781 -1.3086,-1.1406 -2.4219,-1.1406 -1.4492,0 -2.5703,0.60156 -3.3594,1.7969 -0.79297,1.1992 -1.2031,2.9297 -1.2344,5.1875 v 11.75 h -7.6875 v -12.469 c 0,-2.6562 -0.23047,-4.3633 -0.6875,-5.125 -0.44922,-0.75781 -1.2578,-1.1406 -2.4219,-1.1406 -1.4688,0 -2.6055,0.60547 -3.4062,1.8125 -0.79297,1.1992 -1.1875,2.918 -1.1875,5.1562 V -5e-4 h -7.7031 v -23.922 h 7.7031 v 3.5 c 0.9375,-1.3516 2.0156,-2.3672 3.2344,-3.0469 1.2188,-0.6875 2.5547,-1.0312 4.0156,-1.0312 1.6562,0 3.1133,0.40234 4.375,1.2031 1.2695,0.79297 2.2344,1.9062 2.8906,3.3438 z"
         id="path32" />
    </symbol>
    <symbol
       id="n"
       overflow="visible">
      <path
         d="m 3.6719,-33.234 h 7.6562 v 18.094 l 8.7969,-8.7812 h 8.8906 l -11.688,10.969 12.594,12.953 H 20.656 L 11.3279,-9.968 V 8e-4 H 3.6717 Z"
         id="path35" />
    </symbol>
    <symbol
       id="m"
       overflow="visible">
      <path
         d="m 3.6719,-23.922 h 7.6562 V 0 H 3.6719 Z m 0,-9.3125 h 7.6562 v 6.2344 H 3.6719 Z"
         id="path38" />
    </symbol>
    <symbol
       id="l"
       overflow="visible">
      <path
         d="m 4.0156,-31.891 h 9.1875 l 11.594,21.875 V -31.891 H 32.594 V 0 H 23.4065 L 11.8125,-21.875 V 0 H 4.0156 Z"
         id="path41" />
    </symbol>
    <symbol
       id="k"
       overflow="visible">
      <path
         d="M 27.734,-14.562 V 0 h -7.7031 v -11.156 c 0,-2.0625 -0.04687,-3.4844 -0.14062,-4.2656 -0.08594,-0.78125 -0.24219,-1.3594 -0.46875,-1.7344 -0.30469,-0.5 -0.71094,-0.88281 -1.2188,-1.1562 -0.51172,-0.28125 -1.0938,-0.42188 -1.75,-0.42188 -1.5938,0 -2.8516,0.61719 -3.7656,1.8438 -0.90625,1.2305 -1.3594,2.9375 -1.3594,5.125 v 11.766 h -7.6562 v -23.922 h 7.6562 v 3.5 c 1.1445,-1.3945 2.3633,-2.4219 3.6562,-3.0781 1.3008,-0.66406 2.7383,-1 4.3125,-1 2.7578,0 4.8516,0.85156 6.2812,2.5469 1.4375,1.6875 2.1562,4.1523 2.1562,7.3906 z"
         id="path44" />
    </symbol>
    <symbol
       id="j"
       overflow="visible">
      <path
         d="M 11.328,-3.4531 V 9.0939 H 3.6718 v -33.016 h 7.6562 v 3.5 c 1.0508,-1.3945 2.2188,-2.4219 3.5,-3.0781 1.2812,-0.66406 2.7539,-1 4.4219,-1 2.9453,0 5.3672,1.1719 7.2656,3.5156 1.8945,2.3438 2.8438,5.3594 2.8438,9.0469 0,3.6875 -0.94922,6.7031 -2.8438,9.0469 -1.8984,2.3438 -4.3203,3.5156 -7.2656,3.5156 -1.668,0 -3.1406,-0.33594 -4.4219,-1 -1.2813,-0.66406 -2.4492,-1.6914 -3.5,-3.0781 z m 5.0781,-15.5 c -1.6367,0 -2.8906,0.60547 -3.7656,1.8125 -0.875,1.1992 -1.3125,2.9336 -1.3125,5.2031 0,2.2617 0.4375,3.9961 1.3125,5.2031 0.875,1.1992 2.1289,1.7969 3.7656,1.7969 1.6328,0 2.8828,-0.59766 3.75,-1.7969 0.86328,-1.1953 1.2969,-2.9297 1.2969,-5.2031 0,-2.2812 -0.43359,-4.0195 -1.2969,-5.2188 -0.86719,-1.1953 -2.1172,-1.7969 -3.75,-1.7969 z"
         id="path47" />
    </symbol>
    <linearGradient
       id="linearGradient2533"
       x1="898"
       x2="907.53003"
       y1="255.88"
       y2="255.94"
       gradientTransform="matrix(1,0,0,0.86048,0.1875,35.677)"
       gradientUnits="userSpaceOnUse"
       spreadMethod="reflect"
       xlink:href="#linearGradient2531" />
    <linearGradient
       id="linearGradient2531">
      <stop
         stop-color="#a95900"
         offset="0"
         id="stop17" />
      <stop
         stop-color="#f37e00"
         offset="1"
         id="stop19" />
    </linearGradient>
    <linearGradient
       inkscape:collect="always"
       xlink:href="#linearGradient2531"
       id="linearGradient940"
       x1="171.34303"
       y1="345.16049"
       x2="316.69275"
       y2="345.16049"
       gradientUnits="userSpaceOnUse"
       gradientTransform="translate(-39.199479,-169.07858)" />
    <linearGradient
       inkscape:collect="always"
       xlink:href="#linearGradient2531"
       id="linearGradient1045"
       x1="229.85692"
       y1="440.04724"
       x2="260.1431"
       y2="440.04724"
       gradientUnits="userSpaceOnUse"
       gradientTransform="matrix(2.1303547,0,0,1,-317.11849,-169.07858)" />
    <marker
       style="overflow:visible"
       id="marker1718-6"
       refX="0"
       refY="0"
       orient="auto"
       inkscape:stockid="Arrow2Send"
       inkscape:isstock="true">
      <path
         transform="matrix(-0.3,0,0,-0.3,0.69,0)"
         d="M 8.7185878,4.0337352 -2.2072895,0.01601326 8.7185884,-4.0017078 c -1.7454984,2.3720609 -1.7354408,5.6174519 -6e-7,8.035443 z"
         style="fill:#00696b;fill-opacity:1;fill-rule:evenodd;stroke:#00696b;stroke-width:0.625;stroke-linejoin:round;stroke-opacity:1"
         id="path1716-5" />
    </marker>
  </defs>
  <rect
     style="fill:url(#linearGradient1045);fill-opacity:1;fill-rule:evenodd;stroke:none;stroke-width:6.76225;stroke-linecap:square;stroke-miterlimit:4;stroke-dasharray:none;stroke-opacity:1;paint-order:fill markers stroke"
     id="rect1066-4"
     width="64.520317"
     height="51.237087"
     x="172.55827"
     y="245.35013" />
  <path
     id="rect1064-5"
     style="fill:#cf6c00;fill-opacity:1;fill-rule:evenodd;stroke:none;stroke-width:5.34308;stroke-linecap:square;stroke-miterlimit:4;stroke-dasharray:none;stroke-opacity:1;paint-order:fill markers stroke"
     d="M 155.50664,269.30403 H 182.7044 V 204.0716 h -27.19776 z" />
  <path
     id="path971-8"
     style="fill:#a95900;fill-opacity:1;fill-rule:evenodd;stroke:none;stroke-width:5.625;stroke-linecap:square;stroke-miterlimit:4;stroke-dasharray:none;stroke-opacity:1;paint-order:fill markers stroke"
     d="m 254.13019,204.0716 h -27.19776 v 65.23243 h 27.19776 z" />
  <path
     id="path969-9"
     style="fill:#f37e00;fill-opacity:1;fill-rule:evenodd;stroke:none;stroke-width:5.625;stroke-linecap:square;stroke-miterlimit:4;stroke-dasharray:none;stroke-opacity:1;paint-order:fill markers stroke"
     d="m 182.7044,204.0716 v 65.23243 h 44.22803 V 204.0716 Z" />
  <path
     id="rect1064-5-7"
     style="fill:#cf6c00;fill-opacity:1;fill-rule:evenodd;stroke:none;stroke-width:5.34308;stroke-linecap:square;stroke-miterlimit:4;stroke-dasharray:none;stroke-opacity:1;paint-order:fill markers stroke"
     d="m 155.50665,148.22608 h 27.19776 V 82.99365 h -27.19776 z" />
  <path
     id="path971-8-3"
     style="fill:#a95900;fill-opacity:1;fill-rule:evenodd;stroke:none;stroke-width:5.625;stroke-linecap:square;stroke-miterlimit:4;stroke-dasharray:none;stroke-opacity:1;paint-order:fill markers stroke"
     d="m 254.13019,82.99365 h -27.19775 v 65.23243 h 27.19775 z" />
  <path
     id="path969-9-7"
     style="fill:#f37e00;fill-opacity:1;fill-rule:evenodd;stroke:none;stroke-width:5.625;stroke-linecap:square;stroke-miterlimit:4;stroke-dasharray:none;stroke-opacity:1;paint-order:fill markers stroke"
     d="m 182.70441,82.99365 v 65.23243 h 44.22803 V 82.99365 Z" />
  <rect
     style="fill:url(#linearGradient940);fill-opacity:1;fill-rule:evenodd;stroke:none;stroke-width:3.75;stroke-linecap:square;stroke-miterlimit:4;stroke-dasharray:none;stroke-opacity:1;paint-order:fill markers stroke"
     id="rect1062"
     width="145.34973"
     height="103.11974"
     x="132.14355"
     y="124.52204" />
  <rect
     style="fill:#4f85c1;fill-opacity:1;fill-rule:evenodd;stroke:#294d71;stroke-width:5.625;stroke-linecap:square;stroke-miterlimit:4;stroke-dasharray:none;stroke-opacity:1;paint-order:fill markers stroke"
     id="rect1045"
     width="186.59763"
     height="26.516504"
     x="111.51961"
     y="151.03857" />
  <rect
     style="fill:#4f85c1;fill-opacity:1;fill-rule:evenodd;stroke:#294d71;stroke-width:5.625;stroke-linecap:square;stroke-miterlimit:4;stroke-dasharray:none;stroke-opacity:1;paint-order:fill markers stroke"
     id="rect1045-9"
     width="186.59763"
     height="26.516504"
     x="111.51961"
     y="177.55508" />
  <path
     id="path2686"
     style="color:#000000;font-style:normal;font-variant:normal;font-weight:normal;font-stretch:normal;font-size:medium;line-height:normal;font-family:sans-serif;font-variant-ligatures:normal;font-variant-position:normal;font-variant-caps:normal;font-variant-numeric:normal;font-variant-alternates:normal;font-variant-east-asian:normal;font-feature-settings:normal;font-variation-settings:normal;text-indent:0;text-align:start;text-decoration:none;text-decoration-line:none;text-decoration-style:solid;text-decoration-color:#000000;letter-spacing:normal;word-spacing:normal;text-transform:none;writing-mode:lr-tb;direction:ltr;text-orientation:mixed;dominant-baseline:auto;baseline-shift:baseline;text-anchor:start;white-space:normal;shape-padding:0;shape-margin:0;inline-size:0;clip-rule:nonzero;display:inline;overflow:visible;visibility:visible;isolation:auto;mix-blend-mode:normal;color-interpolation:sRGB;color-interpolation-filters:linearRGB;solid-color:#000000;solid-opacity:1;vector-effect:none;fill:#00cacf;fill-opacity:1;fill-rule:evenodd;stroke:#00696b;stroke-width:2.90879;stroke-linecap:square;stroke-linejoin:miter;stroke-miterlimit:4;stroke-dasharray:none;stroke-dashoffset:0;stroke-opacity:1;paint-order:fill markers stroke;color-rendering:auto;image-rendering:auto;shape-rendering:auto;text-rendering:auto;enable-background:accumulate;stop-color:#000000"
     d="m 41.46675,149.93354 c -0.917351,-0.0147 -1.743754,0.56322 -2.061005,1.4414 l -27.819976,77.01828 c -0.734112,2.03662 1.555362,3.81546 3.284966,2.55228 5.565977,-4.06936 11.788651,-6.72237 18.195699,-7.96096 2.236597,12.04239 5.676852,23.85235 10.298176,35.18567 25.8902,65.75453 91.99208,110.76898 161.45135,109.94545 69.4768,0.82373 135.5963,-44.21321 161.47273,-109.9948 l 4.29186,-10.90686 -21.3839,-8.75282 -4.29073,10.90573 C 322.76528,305.652 264.40829,345.3776 204.95996,344.61839 l -0.144,-7.8e-4 -0.144,7.8e-4 C 145.22366,345.3776 86.86682,305.652 64.72602,249.36691 l -0.0293,-0.0723 -0.0281,-0.07 c -3.19961,-7.83412 -5.74815,-15.95115 -7.64097,-24.22601 3.80871,1.43942 7.46191,3.42651 10.84383,5.96871 1.72449,1.29588 4.04702,-0.48293 3.30861,-2.53392 l -27.71987,-77.0573 c -0.3082,-0.85511 -1.10048,-1.4282 -1.9935,-1.44255 z" />
  <path
     id="path2712"
     style="color:#000000;font-style:normal;font-variant:normal;font-weight:normal;font-stretch:normal;font-size:medium;line-height:normal;font-family:sans-serif;font-variant-ligatures:normal;font-variant-position:normal;font-variant-caps:normal;font-variant-numeric:normal;font-variant-alternates:normal;font-variant-east-asian:normal;font-feature-settings:normal;font-variation-settings:normal;text-indent:0;text-align:start;text-decoration:none;text-decoration-line:none;text-decoration-style:solid;text-decoration-color:#000000;letter-spacing:normal;word-spacing:normal;text-transform:none;writing-mode:lr-tb;direction:ltr;text-orientation:mixed;dominant-baseline:auto;baseline-shift:baseline;text-anchor:start;white-space:normal;shape-padding:0;shape-margin:0;inline-size:0;clip-rule:nonzero;display:inline;overflow:visible;visibility:visible;isolation:auto;mix-blend-mode:normal;color-interpolation:sRGB;color-interpolation-filters:linearRGB;solid-color:#000000;solid-opacity:1;vector-effect:none;fill:#00cacf;fill-opacity:1;fill-rule:evenodd;stroke:#00696b;stroke-width:2.90879;stroke-linecap:square;stroke-linejoin:miter;stroke-miterlimit:4;stroke-dasharray:none;stroke-dashoffset:0;stroke-opacity:1;paint-order:fill markers stroke;color-rendering:auto;image-rendering:auto;shape-rendering:auto;text-rendering:auto;enable-background:accumulate;stop-color:#000000"
     d="M 201.56135,11.465422 C 133.28227,12.059273 68.81535,56.71107 43.34324,121.46482 l -4.289606,10.90572 21.381646,8.75281 4.29074,-10.90573 c 22.1408,-56.2851 80.49764,-96.00955 139.94594,-95.250332 l 0.144,0.0024 0.144,-0.0024 C 264.40828,34.20807 322.76511,73.93252 344.90592,130.21762 l 0.0293,0.0723 0.0293,0.07 c 3.19988,7.8348 5.74841,15.95268 7.64096,24.2283 -3.80917,-1.43934 -7.46275,-3.42632 -10.84494,-5.96871 -0.38096,-0.28665 -0.84292,-0.4381 -1.31625,-0.43035 -1.48629,0.0253 -2.50439,1.53839 -1.99236,2.96198 l 27.71986,77.0573 c 0.69257,1.9238 3.35913,1.92496 4.05449,0.002 l 27.82224,-77.01829 c 0.0882,-0.24397 0.13267,-0.50196 0.13275,-0.76201 1.3e-4,-1.79484 -1.99067,-2.83698 -3.41998,-1.79026 -5.56593,4.06891 -11.78858,6.72125 -18.19567,7.9598 -2.23587,-12.03862 -5.67457,-23.84411 -10.2937,-35.17419 C 340.38429,55.66604 274.27863,10.647588 204.81598,11.471134 c -1.08557,-0.01285 -2.17081,-0.0152 -3.2546,-0.0055 z" />
</svg>
