<svg width="281.62" height="302.99" data-name="Ebene 2" version="1.1" viewBox="0 0 281.62 302.99" xmlns="http://www.w3.org/2000/svg" xmlns:xlink="http://www.w3.org/1999/xlink">
 <defs>
  <linearGradient id="linearGradient1262">
   <stop stop-color="#ac5a00" offset="0"/>
   <stop stop-color="#f17d00" offset="1"/>
  </linearGradient>
  <linearGradient id="linearGradient1254">
   <stop stop-color="#ac5a00" offset="0"/>
   <stop stop-color="#f27e00" offset="1"/>
  </linearGradient>
  <linearGradient id="linearGradient1242">
   <stop stop-color="#ab5a00" offset="0"/>
   <stop stop-color="#f27e00" offset="1"/>
  </linearGradient>
  <linearGradient id="linearGradient2531">
   <stop stop-color="#a95900" offset="0"/>
   <stop stop-color="#f37e00" offset="1"/>
  </linearGradient>
  <style>.cls-1 {
        fill: #fff;
        opacity: 0;
      }

      .cls-2 {
        fill: #7c8080;
      }

      .cls-2, .cls-3 {
        stroke: #000;
      }

      .cls-2, .cls-3, .cls-4, .cls-5 {
        stroke-miterlimit: 10;
      }

      .cls-3, .cls-4 {
        fill: none;
      }

      .cls-4, .cls-5 {
        stroke: #fedc80;
      }

      .cls-5 {
        fill: #ffeebf;
      }</style>
  <linearGradient id="linearGradient1842-0" x1="640.58" x2="644.49" y1="-6.2257" y2=".53685" gradientUnits="userSpaceOnUse">
   <stop stop-color="#848b90" offset="0"/>
   <stop stop-color="#fff" offset="1"/>
  </linearGradient>
  <linearGradient id="linearGradient2533" x1="898" x2="907.53" y1="255.88" y2="255.94" gradientTransform="matrix(1 0 0 .86048 .1875 35.677)" gradientUnits="userSpaceOnUse" spreadMethod="reflect" xlink:href="#linearGradient2531"/>
  <linearGradient id="linearGradient2763-9" x1="1559.4" x2="1559.4" y1="112.28" y2="104.34" gradientTransform="matrix(.39339 .04097 .0097375 .29478 16.133 231.43)" gradientUnits="userSpaceOnUse" spreadMethod="reflect" xlink:href="#linearGradient2531"/>
  <linearGradient id="linearGradient2614-4" x1="898.59" x2="906.06" y1="495.39" y2="495.39" gradientTransform="matrix(.19261 0 0 .16574 480.31 224.35)" gradientUnits="userSpaceOnUse" spreadMethod="reflect" xlink:href="#linearGradient1242"/>
  <linearGradient id="linearGradient1228" x1="652.79" x2="652.18" y1="315.34" y2="312.32" gradientUnits="userSpaceOnUse" xlink:href="#linearGradient1262"/>
  <radialGradient id="radialGradient1236" cx="651.51" cy="309.84" r="2.3906" gradientTransform="matrix(-.10614 1.1436 -.59142 -.054889 905.79 -418.64)" gradientUnits="userSpaceOnUse" spreadMethod="reflect" xlink:href="#linearGradient1254"/>
 </defs>
 <g transform="matrix(1.5385 0 0 1.5385 -758.65 -265.76)">
  <path d="m654.94 265.9v46l-25.266 14.588" fill="none" stroke="#000" stroke-width="1px"/>
  <path d="m630.64 326.91a1.9917 1.4698 78.253 0 1-1.4287 1.8112 1.9917 1.4698 78.253 0 1-1.5586-2.1223 1.9917 1.4698 78.253 0 1 1.4287-1.8111 1.9917 1.4698 78.253 0 1 1.5586 2.1223z" fill="url(#linearGradient2763-9)" fill-rule="evenodd" style="paint-order:normal"/>
  <path transform="scale(-1,1)" d="m-652.88 265.39a1.9808 1.1337 0 0 1-1.9808 1.1337 1.9808 1.1337 0 0 1-1.9808-1.1337 1.9808 1.1337 0 0 1 1.9808-1.1337 1.9808 1.1337 0 0 1 1.9808 1.1337z" fill="#ffe000" fill-rule="evenodd" stroke-linecap="square" stroke-miterlimit="10" stroke-width=".16706" style="paint-order:fill markers stroke"/>
  <path d="m652.88 308.5h3.9688v2.7812c0 2.0781-1.6469 2.7017-3.625 3.8438l-1.1562-3.8438c0.79254-0.45757 0.8125-0.4375 0.8125-2.7812z" fill="url(#radialGradient1236)"/>
  <path d="m652.88 265.39c-2.7e-4 0.62634 0.88688 1.1342 1.9812 1.1341 1.0942-9e-5 1.981-0.50786 1.9808-1.1341v43.245c2.6e-4 0.62623-0.88658 1.134-1.9808 1.1341-1.0944 7e-5 -1.9815-0.50774-1.9812-1.1341z" fill="url(#linearGradient2614-4)" fill-rule="evenodd" style="paint-order:fill markers stroke"/>
  <path d="m628.58 324.81 1.0358 3.8657 23.859-13.697-1.1916-3.8095z" fill="url(#linearGradient1228)"/>
  <path d="m630.64 326.91a1.9917 1.4698 78.253 0 1-1.4287 1.8111 1.9917 1.4698 78.253 0 1-1.5586-2.1223 1.9917 1.4698 78.253 0 1 1.4287-1.8111 1.9917 1.4698 78.253 0 1 1.5586 2.1223z" fill="#ffad00" fill-rule="evenodd" style="paint-order:normal"/>
 </g>
 <g transform="matrix(1.5385 0 0 1.5385 -860.11 -207.75)">
  <path d="m654.94 265.9v46l-25.266 14.588" fill="none" stroke="#000" stroke-width="1px"/>
  <path d="m630.64 326.91a1.9917 1.4698 78.253 0 1-1.4287 1.8112 1.9917 1.4698 78.253 0 1-1.5586-2.1223 1.9917 1.4698 78.253 0 1 1.4287-1.8111 1.9917 1.4698 78.253 0 1 1.5586 2.1223z" fill="url(#linearGradient2763-9)" fill-rule="evenodd" style="paint-order:normal"/>
  <path transform="scale(-1,1)" d="m-652.88 265.39a1.9808 1.1337 0 0 1-1.9808 1.1337 1.9808 1.1337 0 0 1-1.9808-1.1337 1.9808 1.1337 0 0 1 1.9808-1.1337 1.9808 1.1337 0 0 1 1.9808 1.1337z" fill="#ffe000" fill-rule="evenodd" stroke-linecap="square" stroke-miterlimit="10" stroke-width=".16706" style="paint-order:fill markers stroke"/>
  <path d="m652.88 308.5h3.9688v2.7812c0 2.0781-1.6469 2.7017-3.625 3.8438l-1.1562-3.8438c0.79254-0.45757 0.8125-0.4375 0.8125-2.7812z" fill="url(#radialGradient1236)"/>
  <path d="m652.88 265.39c-2.7e-4 0.62634 0.88688 1.1342 1.9812 1.1341 1.0942-9e-5 1.981-0.50786 1.9808-1.1341v43.245c2.6e-4 0.62623-0.88658 1.134-1.9808 1.1341-1.0944 7e-5 -1.9815-0.50774-1.9812-1.1341z" fill="url(#linearGradient2614-4)" fill-rule="evenodd" style="paint-order:fill markers stroke"/>
  <path d="m628.58 324.81 1.0358 3.8657 23.859-13.697-1.1916-3.8095z" fill="url(#linearGradient1228)"/>
  <path d="m630.64 326.91a1.9917 1.4698 78.253 0 1-1.4287 1.8111 1.9917 1.4698 78.253 0 1-1.5586-2.1223 1.9917 1.4698 78.253 0 1 1.4287-1.8111 1.9917 1.4698 78.253 0 1 1.5586 2.1223z" fill="#ffad00" fill-rule="evenodd" style="paint-order:normal"/>
 </g>
 <g transform="matrix(1.5385 0 0 1.5385 -960.64 -266.52)">
  <path d="m654.94 265.9v46l-25.266 14.588" fill="none" stroke="#000" stroke-width="1px"/>
  <path d="m630.64 326.91a1.9917 1.4698 78.253 0 1-1.4287 1.8112 1.9917 1.4698 78.253 0 1-1.5586-2.1223 1.9917 1.4698 78.253 0 1 1.4287-1.8111 1.9917 1.4698 78.253 0 1 1.5586 2.1223z" fill="url(#linearGradient2763-9)" fill-rule="evenodd" style="paint-order:normal"/>
  <path transform="scale(-1,1)" d="m-652.88 265.39a1.9808 1.1337 0 0 1-1.9808 1.1337 1.9808 1.1337 0 0 1-1.9808-1.1337 1.9808 1.1337 0 0 1 1.9808-1.1337 1.9808 1.1337 0 0 1 1.9808 1.1337z" fill="#ffe000" fill-rule="evenodd" stroke-linecap="square" stroke-miterlimit="10" stroke-width=".16706" style="paint-order:fill markers stroke"/>
  <path d="m652.88 308.5h3.9688v2.7812c0 2.0781-1.6469 2.7017-3.625 3.8438l-1.1562-3.8438c0.79254-0.45757 0.8125-0.4375 0.8125-2.7812z" fill="url(#radialGradient1236)"/>
  <path d="m652.88 265.39c-2.7e-4 0.62634 0.88688 1.1342 1.9812 1.1341 1.0942-9e-5 1.981-0.50786 1.9808-1.1341v43.245c2.6e-4 0.62623-0.88658 1.134-1.9808 1.1341-1.0944 7e-5 -1.9815-0.50774-1.9812-1.1341z" fill="url(#linearGradient2614-4)" fill-rule="evenodd" style="paint-order:fill markers stroke"/>
  <path d="m628.58 324.81 1.0358 3.8657 23.859-13.697-1.1916-3.8095z" fill="url(#linearGradient1228)"/>
  <path d="m630.64 326.91a1.9917 1.4698 78.253 0 1-1.4287 1.8111 1.9917 1.4698 78.253 0 1-1.5586-2.1223 1.9917 1.4698 78.253 0 1 1.4287-1.8111 1.9917 1.4698 78.253 0 1 1.5586 2.1223z" fill="#ffad00" fill-rule="evenodd" style="paint-order:normal"/>
 </g>
 <g transform="matrix(.90197 0 0 .90197 -670.07 -20.005)">
  <path d="m909.19 104.75-144.19 83.248 140.39 81.055 144.19-83.248z" fill="#bacfe6"/>
  <path d="m765 188-3e-5 6 140.39 81.055v-6z" fill="#4f85c1"/>
  <path d="m905.39 275.05 144.19-83.248v-6l-144.19 83.248z" fill="#294d71"/>
 </g>
 <g transform="matrix(.45098 .78113 .78113 -.45098 -118.32 -530.1)" shape-rendering="auto">
  <path d="m684.56-60.725-23.354 13.48s15.439 8.9142 18.906 10.916c2.7798 1.6049 4.4473 0.66212 4.4473-2.5664z" color="#000000" color-rendering="auto" dominant-baseline="auto" fill="#f6fbff" image-rendering="auto" solid-color="#000000" stop-color="#000000" style="font-feature-settings:normal;font-variant-alternates:normal;font-variant-caps:normal;font-variant-east-asian:normal;font-variant-ligatures:normal;font-variant-numeric:normal;font-variant-position:normal;font-variation-settings:normal;inline-size:0;isolation:auto;mix-blend-mode:normal;shape-margin:0;shape-padding:0;text-decoration-color:#000000;text-decoration-line:none;text-decoration-style:solid;text-indent:0;text-orientation:mixed;text-transform:none;white-space:normal"/>
  <path d="m685.07-61.594-0.75 0.43359-23.604 13.623v0.57812l0.25 0.14453s15.439 8.9142 18.906 10.916c1.4641 0.84529 2.7707 1.0992 3.7637 0.5293 0.993-0.56986 1.4336-1.8289 1.4336-3.5293zm-1 1.7324v20.963c0 1.5282-0.39399 2.3547-0.92969 2.6621s-1.4519 0.23226-2.7676-0.52734c-3.3296-1.9224-17.021-9.827-18.156-10.482z" color="#000000" color-rendering="auto" dominant-baseline="auto" fill="#0d0d0e" image-rendering="auto" solid-color="#000000" stop-color="#000000" style="font-feature-settings:normal;font-variant-alternates:normal;font-variant-caps:normal;font-variant-east-asian:normal;font-variant-ligatures:normal;font-variant-numeric:normal;font-variant-position:normal;font-variation-settings:normal;inline-size:0;isolation:auto;mix-blend-mode:normal;shape-margin:0;shape-padding:0;text-decoration-color:#000000;text-decoration-line:none;text-decoration-style:solid;text-indent:0;text-orientation:mixed;text-transform:none;white-space:normal"/>
  <path d="m709.85-19.165s-13.282-7.787-18.414-10.75c-3.9051-2.2546-4.4941-4.34-4.4941-6.9414v-36.119c0-2.4781 1.8005-4.0739 6.0488-1.6211 4.2484 2.4528 17.102 9.6719 17.102 9.6719v-4.0801l-48.756-27.814v4.248s13.837 7.9888 17.635 10.182c3.7981 2.1928 5.5879 4.5961 5.5879 7.9961v35.498c0 3.2285-1.6675 4.1713-4.4473 2.5664-3.4673-2.0018-18.906-10.916-18.906-10.916v4.834l48.645 27.51z" color="#000000" color-rendering="auto" dominant-baseline="auto" fill="#7c8080" image-rendering="auto" solid-color="#000000" stop-color="#000000" style="font-feature-settings:normal;font-variant-alternates:normal;font-variant-caps:normal;font-variant-east-asian:normal;font-variant-ligatures:normal;font-variant-numeric:normal;font-variant-position:normal;font-variation-settings:normal;inline-size:0;isolation:auto;mix-blend-mode:normal;paint-order:normal;shape-margin:0;shape-padding:0;text-decoration-color:#000000;text-decoration-line:none;text-decoration-style:solid;text-indent:0;text-orientation:mixed;text-transform:none;white-space:normal"/>
  <path d="m661.34-97.399-0.5 0.28906v4.8242l0.25 0.14453s13.837 7.9888 17.635 10.182c3.72 2.1477 5.3379 4.338 5.3379 7.5625v35.498c0 1.5282-0.39399 2.3547-0.92969 2.6621-0.5357 0.30743-1.4519 0.23226-2.7676-0.52734-3.4672-2.0018-18.906-10.916-18.906-10.916l-0.75 0.43164v5.127l49.158 27.799-6e-3 -0.0078 0.49219-0.2832v-4.8399l-0.24805-0.14648s-13.279-7.7841-18.416-10.75c-1.9042-1.0994-2.9464-2.1261-3.5254-3.1543-0.57899-1.0282-0.71875-2.0925-0.71875-3.3555v-36.119c0-1.1179 0.3644-1.8871 1.1211-2.1973 0.75669-0.31012 2.1207-0.17786 4.1777 1.0098 4.2586 2.4587 17.105 9.6738 17.105 9.6738l0.74609 0.41992v-5.2246zm0.5 1.4375 47.756 27.244v2.9336c-1.0312-0.57934-12.298-6.9076-16.352-9.248-2.1913-1.2652-3.851-1.5625-5.0566-1.0684-1.2056 0.49411-1.7422 1.761-1.7422 3.1211v36.119c0 1.3384 0.15587 2.6172 0.84765 3.8457 0.69183 1.2285 1.8956 2.3741 3.8965 3.5293 5.0584 2.9205 17.817 10.4 18.164 10.604v3.1191l-47.645-26.943v-3.6758c1.1352 0.65546 14.827 8.56 18.156 10.482 1.4641 0.84529 2.7707 1.0992 3.7637 0.5293s1.4336-1.8289 1.4336-3.5293v-35.498c0-3.5755-1.9617-6.1898-5.8379-8.4277-3.7442-2.1617-17.003-9.8165-17.385-10.037z" color="#000000" color-rendering="auto" dominant-baseline="auto" fill="#0d0d0e" image-rendering="auto" solid-color="#000000" stop-color="#000000" style="font-feature-settings:normal;font-variant-alternates:normal;font-variant-caps:normal;font-variant-east-asian:normal;font-variant-ligatures:normal;font-variant-numeric:normal;font-variant-position:normal;font-variation-settings:normal;inline-size:0;isolation:auto;mix-blend-mode:normal;paint-order:normal;shape-margin:0;shape-padding:0;text-decoration-color:#000000;text-decoration-line:none;text-decoration-style:solid;text-indent:0;text-orientation:mixed;text-transform:none;white-space:normal"/>
  <path d="m709.86-19.168 107.11-61.843v4.2637l-107.11 61.843z" color="#000000" color-rendering="auto" dominant-baseline="auto" fill="#5f6367" image-rendering="auto" solid-color="#000000" stop-color="#000000" style="font-feature-settings:normal;font-variant-alternates:normal;font-variant-caps:normal;font-variant-east-asian:normal;font-variant-ligatures:normal;font-variant-numeric:normal;font-variant-position:normal;font-variation-settings:normal;inline-size:0;isolation:auto;mix-blend-mode:normal;shape-margin:0;shape-padding:0;text-decoration-color:#000000;text-decoration-line:none;text-decoration-style:solid;text-indent:0;text-orientation:mixed;text-transform:none;white-space:normal"/>
  <path d="m817-81.607-107.65 62.156v4.834l0.50781 0.29297 1.209-0.69922 0.33984-0.19531 106.1-61.256v-4.8359zm-0.4961 1.4414v3.1094l-106.16 61.286v-3.1094z" color="#000000" color-rendering="auto" dominant-baseline="auto" fill="#0d0d0e" image-rendering="auto" solid-color="#000000" stop-color="#000000" style="font-feature-settings:normal;font-variant-alternates:normal;font-variant-caps:normal;font-variant-east-asian:normal;font-variant-ligatures:normal;font-variant-numeric:normal;font-variant-position:normal;font-variation-settings:normal;inline-size:0;isolation:auto;mix-blend-mode:normal;shape-margin:0;shape-padding:0;text-decoration-color:#000000;text-decoration-line:none;text-decoration-style:solid;text-indent:0;text-orientation:mixed;text-transform:none;white-space:normal"/>
  <path d="m710.59-69.474 107.01-61.78v4.2637l-107.01 61.78z" color="#000000" color-rendering="auto" dominant-baseline="auto" fill="#5f6367" image-rendering="auto" solid-color="#000000" stop-color="#000000" style="font-feature-settings:normal;font-variant-alternates:normal;font-variant-caps:normal;font-variant-east-asian:normal;font-variant-ligatures:normal;font-variant-numeric:normal;font-variant-position:normal;font-variation-settings:normal;inline-size:0;isolation:auto;mix-blend-mode:normal;shape-margin:0;shape-padding:0;text-decoration-color:#000000;text-decoration-line:none;text-decoration-style:solid;text-indent:0;text-orientation:mixed;text-transform:none;white-space:normal"/>
  <path d="m817.39-131.71-107.57 62.105v5.4199l108.23-62.485v-4.6582zm-0.3418 1.3516v3.1094l-106.23 61.335v-3.1094z" color="#000000" color-rendering="auto" dominant-baseline="auto" fill="#0d0d0e" image-rendering="auto" solid-color="#000000" stop-color="#000000" style="font-feature-settings:normal;font-variant-alternates:normal;font-variant-caps:normal;font-variant-east-asian:normal;font-variant-ligatures:normal;font-variant-numeric:normal;font-variant-position:normal;font-variation-settings:normal;inline-size:0;isolation:auto;mix-blend-mode:normal;shape-margin:0;shape-padding:0;text-decoration-color:#000000;text-decoration-line:none;text-decoration-style:solid;text-indent:0;text-orientation:mixed;text-transform:none;white-space:normal"/>
  <path d="m661.33-96.819 107.25-61.916 48.756 27.814-107.25 61.916z" color="#000000" color-rendering="auto" dominant-baseline="auto" fill="#f6fbff" image-rendering="auto" solid-color="#000000" stop-color="#000000" style="font-feature-settings:normal;font-variant-alternates:normal;font-variant-caps:normal;font-variant-east-asian:normal;font-variant-ligatures:normal;font-variant-numeric:normal;font-variant-position:normal;font-variation-settings:normal;inline-size:0;isolation:auto;mix-blend-mode:normal;shape-margin:0;shape-padding:0;text-decoration-color:#000000;text-decoration-line:none;text-decoration-style:solid;text-indent:0;text-orientation:mixed;text-transform:none;white-space:normal"/>
  <path d="m768.79-159.44-107.95 62.323v0.57812l0.25195 0.14453 49.006 27.955 107.95-62.323v-0.57813zm4e-3 1.1524 47.75 27.24-106.45 61.463-47.75-27.24z" color="#000000" color-rendering="auto" dominant-baseline="auto" fill="#0d0d0e" image-rendering="auto" solid-color="#000000" stop-color="#000000" style="font-feature-settings:normal;font-variant-alternates:normal;font-variant-caps:normal;font-variant-east-asian:normal;font-variant-ligatures:normal;font-variant-numeric:normal;font-variant-position:normal;font-variation-settings:normal;inline-size:0;isolation:auto;mix-blend-mode:normal;shape-margin:0;shape-padding:0;text-decoration-color:#000000;text-decoration-line:none;text-decoration-style:solid;text-indent:0;text-orientation:mixed;text-transform:none;white-space:normal"/>
  <path d="m794.1-113.42-84.006 48.496s-12.853-7.2191-17.102-9.6719c-4.2483-2.4528-6.0488-0.85697-6.0488 1.6211v36.119c0 2.6014 0.58904 4.6868 4.4941 6.9414 5.132 2.963 18.414 10.75 18.414 10.75l107.16-61.866s-13.282-7.787-18.414-10.75c-3.9051-2.2546-4.4941-4.34-4.4941-6.9414z" color="#000000" color-rendering="auto" dominant-baseline="auto" fill="url(#linearGradient1842-0)" image-rendering="auto" solid-color="#000000" stop-color="#000000" style="font-feature-settings:normal;font-variant-alternates:normal;font-variant-caps:normal;font-variant-east-asian:normal;font-variant-ligatures:normal;font-variant-numeric:normal;font-variant-position:normal;font-variation-settings:normal;inline-size:0;isolation:auto;mix-blend-mode:normal;shape-margin:0;shape-padding:0;text-decoration-color:#000000;text-decoration-line:none;text-decoration-style:solid;text-indent:0;text-orientation:mixed;text-transform:none;white-space:normal"/>
  <path d="m794.59-114.29-0.75 0.43359-83.741 48.353c-0.36018-0.20231-12.672-7.1176-16.85-9.5293-2.1913-1.2652-3.851-1.5625-5.0566-1.0684-1.2056 0.49411-1.7422 1.761-1.7422 3.1211v36.119c0 1.3384 0.1539 2.6172 0.8457 3.8457 0.69181 1.2285 1.8975 2.3741 3.8984 3.5293 5.127 2.9601 18.41 10.748 18.41 10.748l0.25195 0.14648 107.64-62.153v-0.57422l-0.24804-0.14648s-13.279-7.7841-18.416-10.75c-1.9042-1.0994-2.9464-2.1261-3.5254-3.1543-0.57899-1.0282-0.71875-2.0925-0.71875-3.3555zm-1 1.7324v13.836c0 1.3384 0.15585 2.6172 0.84766 3.8457s1.8956 2.3741 3.8965 3.5293c4.9203 2.8408 16.673 9.7314 17.668 10.314l-106.14 61.283c-0.35208-0.20642-13.099-7.6779-18.166-10.604-1.9042-1.0994-2.9464-2.1261-3.5254-3.1543-0.57899-1.0282-0.71875-2.0925-0.71875-3.3555v-36.119c0-1.1179 0.36439-1.8871 1.1211-2.1973 0.75671-0.31012 2.1207-0.17786 4.1777 1.0098 4.2587 2.4587 16.855 9.5332 16.855 9.5332l0.25 0.14062z" color="#000000" color-rendering="auto" dominant-baseline="auto" fill="#0d0d0e" image-rendering="auto" solid-color="#000000" stop-color="#000000" style="font-feature-settings:normal;font-variant-alternates:normal;font-variant-caps:normal;font-variant-east-asian:normal;font-variant-ligatures:normal;font-variant-numeric:normal;font-variant-position:normal;font-variation-settings:normal;inline-size:0;isolation:auto;mix-blend-mode:normal;shape-margin:0;shape-padding:0;text-decoration-color:#000000;text-decoration-line:none;text-decoration-style:solid;text-indent:0;text-orientation:mixed;text-transform:none;white-space:normal"/>
 </g>
 <g transform="matrix(.90197 0 0 .90197 -670.07 -20.005)">
  <path d="m896.17 248.72a10.285 5.8866 0 0 0 10.286 5.888 10.285 5.8866 0 0 0 10.284-5.888v2.4081a10.285 5.8866 0 0 1-10.284 5.888 10.285 5.8866 0 0 1-10.286-5.888z" fill="url(#linearGradient2533)" fill-rule="evenodd" style="paint-order:fill markers stroke"/>
  <g fill="#ffe000">
   <ellipse transform="scale(-1,1)" cx="-906.46" cy="248.72" rx="10.285" ry="5.8866" fill-rule="evenodd" stroke-linecap="square" stroke-miterlimit="10" stroke-width=".86745" style="paint-order:fill markers stroke"/>
   <path d="m904.8 239.28-5.7793 3.3359 2.4531 4.25 6.7188 1.7852 5.7793-3.3359-2.4531-4.25z"/>
   <path d="m904.8 244.14-5.7793 3.3359 2.4531 4.25 6.7188 1.7852 5.7793-3.3359-2.4531-4.25z"/>
  </g>
  <path d="m899.02 242.62v4.8614l2.4531 4.25v-4.8614z" fill="#a95900"/>
  <path d="m901.47 246.87 6.7188 1.7852v4.8614l-6.7188-1.7852z" fill="#f37e00"/>
  <path d="m908.19 248.65v4.8614l5.7793-3.3359v-4.8614z" fill="#cf6c00"/>
 </g>
 <g transform="matrix(.90197 0 0 .90197 -568.61 -78.006)">
  <path d="m896.17 248.72a10.285 5.8866 0 0 0 10.286 5.888 10.285 5.8866 0 0 0 10.284-5.888v2.4081a10.285 5.8866 0 0 1-10.284 5.888 10.285 5.8866 0 0 1-10.286-5.888z" fill="url(#linearGradient2533)" fill-rule="evenodd" style="paint-order:fill markers stroke"/>
  <g fill="#ffe000">
   <ellipse transform="scale(-1,1)" cx="-906.46" cy="248.72" rx="10.285" ry="5.8866" fill-rule="evenodd" stroke-linecap="square" stroke-miterlimit="10" stroke-width=".86745" style="paint-order:fill markers stroke"/>
   <path d="m904.8 239.28-5.7793 3.3359 2.4531 4.25 6.7188 1.7852 5.7793-3.3359-2.4531-4.25z"/>
   <path d="m904.8 244.14-5.7793 3.3359 2.4531 4.25 6.7188 1.7852 5.7793-3.3359-2.4531-4.25z"/>
  </g>
  <path d="m899.02 242.62v4.8614l2.4531 4.25v-4.8614z" fill="#a95900"/>
  <path d="m901.47 246.87 6.7188 1.7852v4.8614l-6.7188-1.7852z" fill="#f37e00"/>
  <path d="m908.19 248.65v4.8614l5.7793-3.3359v-4.8614z" fill="#cf6c00"/>
 </g>
 <g transform="matrix(.90197 0 0 .90197 -770.6 -78.771)">
  <path d="m896.17 248.72a10.285 5.8866 0 0 0 10.286 5.888 10.285 5.8866 0 0 0 10.284-5.888v2.4081a10.285 5.8866 0 0 1-10.284 5.888 10.285 5.8866 0 0 1-10.286-5.888z" fill="url(#linearGradient2533)" fill-rule="evenodd" style="paint-order:fill markers stroke"/>
  <g fill="#ffe000">
   <ellipse transform="scale(-1,1)" cx="-906.46" cy="248.72" rx="10.285" ry="5.8866" fill-rule="evenodd" stroke-linecap="square" stroke-miterlimit="10" stroke-width=".86745" style="paint-order:fill markers stroke"/>
   <path d="m904.8 239.28-5.7793 3.3359 2.4531 4.25 6.7188 1.7852 5.7793-3.3359-2.4531-4.25z"/>
   <path d="m904.8 244.14-5.7793 3.3359 2.4531 4.25 6.7188 1.7852 5.7793-3.3359-2.4531-4.25z"/>
  </g>
  <path d="m899.02 242.62v4.8614l2.4531 4.25v-4.8614z" fill="#a95900"/>
  <path d="m901.47 246.87 6.7188 1.7852v4.8614l-6.7188-1.7852z" fill="#f37e00"/>
  <path d="m908.19 248.65v4.8614l5.7793-3.3359v-4.8614z" fill="#cf6c00"/>
 </g>
 <g transform="matrix(.90197 0 0 .90197 -666.94 142.95)">
  <path d="m903.06 24.153v3.5109l-4.6099 2.6615z" fill="#00696b"/>
  <path d="m856.17-2.604 46.893 26.756-4.6099 6.1724-46.893-26.756z" fill="#00cacf"/>
 </g>
 <g transform="matrix(.90197 0 0 .90197 -627.85 74.795)">
  <path d="m902.73 74.208v3.5109l-4.6099 2.6615z" fill="#00696b"/>
  <path d="m882.22 62.502 20.516 11.706-4.6099 6.1724-20.516-11.706z" fill="#00cacf"/>
 </g>
</svg>
